<svg width="168" height="52" viewBox="0 0 168 52" fill="none" xmlns="http://www.w3.org/2000/svg">
<path d="M28.4686 32H30.1406V22.056H33.9726V20.48H24.6366V22.056H28.4686V32ZM38.9839 21.912H40.5839V20.312H38.9839V21.912ZM35.7599 21.912H37.3599V20.312H35.7599V21.912ZM37.7119 32.232C38.3359 32.232 38.8879 32.12 39.3679 31.896C39.8533 31.672 40.2533 31.3627 40.5679 30.968V32H42.0559V23.36H40.3679V27.856C40.3679 28.5387 40.2693 29.0853 40.0719 29.496C39.8746 29.9013 39.6079 30.1947 39.2719 30.376C38.9413 30.5573 38.5759 30.648 38.1759 30.648C37.7173 30.648 37.3439 30.5547 37.0559 30.368C36.7679 30.1813 36.5466 29.936 36.3919 29.632C36.2373 29.328 36.1306 29 36.0719 28.648C36.0186 28.2907 35.9919 27.944 35.9919 27.608V23.36H34.2959V28.16C34.2959 28.4267 34.3199 28.736 34.3679 29.088C34.4159 29.44 34.5066 29.8 34.6399 30.168C34.7733 30.536 34.9653 30.8773 35.2159 31.192C35.4719 31.5013 35.8026 31.752 36.2079 31.944C36.6133 32.136 37.1146 32.232 37.7119 32.232ZM44.2917 32H45.9717V26.6C45.9717 26.0133 46.1317 25.5387 46.4517 25.176C46.777 24.8133 47.2037 24.632 47.7317 24.632C48.265 24.632 48.689 24.8133 49.0037 25.176C49.3237 25.5333 49.4837 26.024 49.4837 26.648L49.4757 32H51.1477L51.1557 26.6C51.1557 25.9493 51.329 25.4587 51.6757 25.128C52.0277 24.7973 52.441 24.632 52.9157 24.632C53.4384 24.632 53.8597 24.808 54.1797 25.16C54.4997 25.512 54.6597 25.9973 54.6597 26.616L54.6517 32H56.3237L56.3317 26.216C56.3317 25.288 56.073 24.544 55.5557 23.984C55.0437 23.424 54.3237 23.144 53.3957 23.144C52.8304 23.144 52.3184 23.2693 51.8597 23.52C51.401 23.7653 51.0384 24.1067 50.7717 24.544C50.5424 24.1067 50.2144 23.7653 49.7877 23.52C49.3664 23.2693 48.857 23.144 48.2597 23.144C47.7424 23.144 47.2677 23.248 46.8357 23.456C46.409 23.6587 46.057 23.936 45.7797 24.288V23.36H44.2917V32ZM62.9371 21.912H64.5371V20.312H62.9371V21.912ZM59.7131 21.912H61.3131V20.312H59.7131V21.912ZM61.6651 32.232C62.2891 32.232 62.8411 32.12 63.3211 31.896C63.8064 31.672 64.2064 31.3627 64.5211 30.968V32H66.0091V23.36H64.3211V27.856C64.3211 28.5387 64.2224 29.0853 64.0251 29.496C63.8277 29.9013 63.5611 30.1947 63.2251 30.376C62.8944 30.5573 62.5291 30.648 62.1291 30.648C61.6704 30.648 61.2971 30.5547 61.0091 30.368C60.7211 30.1813 60.4997 29.936 60.3451 29.632C60.1904 29.328 60.0837 29 60.0251 28.648C59.9717 28.2907 59.9451 27.944 59.9451 27.608V23.36H58.2491V28.16C58.2491 28.4267 58.2731 28.736 58.3211 29.088C58.3691 29.44 58.4597 29.8 58.5931 30.168C58.7264 30.536 58.9184 30.8773 59.1691 31.192C59.4251 31.5013 59.7557 31.752 60.1611 31.944C60.5664 32.136 61.0677 32.232 61.6651 32.232ZM68.2448 32H69.9408V27.504C69.9408 26.8213 70.0395 26.2773 70.2368 25.872C70.4395 25.4613 70.7061 25.1653 71.0368 24.984C71.3675 24.8027 71.7328 24.712 72.1328 24.712C72.5915 24.712 72.9648 24.8053 73.2528 24.992C73.5408 25.1787 73.7621 25.424 73.9168 25.728C74.0715 26.032 74.1755 26.3627 74.2288 26.72C74.2875 27.072 74.3168 27.416 74.3168 27.752V32H76.0128V27.2C76.0128 26.9333 75.9888 26.624 75.9408 26.272C75.8928 25.92 75.8021 25.56 75.6688 25.192C75.5355 24.824 75.3408 24.4853 75.0848 24.176C74.8341 23.8613 74.5061 23.608 74.1008 23.416C73.6955 23.224 73.1941 23.128 72.5968 23.128C71.9728 23.128 71.4181 23.24 70.9328 23.464C70.4528 23.688 70.0555 23.9973 69.7408 24.392V23.36H68.2448V32ZM82.6246 21.912H84.2246V20.312H82.6246V21.912ZM79.4006 21.912H81.0006V20.312H79.4006V21.912ZM81.3526 32.232C81.9766 32.232 82.5286 32.12 83.0086 31.896C83.4939 31.672 83.8939 31.3627 84.2086 30.968V32H85.6966V23.36H84.0086V27.856C84.0086 28.5387 83.9099 29.0853 83.7126 29.496C83.5152 29.9013 83.2486 30.1947 82.9126 30.376C82.5819 30.5573 82.2166 30.648 81.8166 30.648C81.3579 30.648 80.9846 30.5547 80.6966 30.368C80.4086 30.1813 80.1872 29.936 80.0326 29.632C79.8779 29.328 79.7712 29 79.7126 28.648C79.6592 28.2907 79.6326 27.944 79.6326 27.608V23.36H77.9366V28.16C77.9366 28.4267 77.9606 28.736 78.0086 29.088C78.0566 29.44 78.1472 29.8 78.2806 30.168C78.4139 30.536 78.6059 30.8773 78.8566 31.192C79.1126 31.5013 79.4432 31.752 79.8486 31.944C80.2539 32.136 80.7552 32.232 81.3526 32.232ZM95.8554 32.24C96.9754 32.24 97.9248 32.0027 98.7034 31.528C99.4874 31.048 100.085 30.3893 100.495 29.552C100.906 28.7147 101.111 27.7627 101.111 26.696C101.111 26.6533 101.109 26.5547 101.103 26.4C101.098 26.2453 101.09 26.1173 101.079 26.016H97.0634V27.36H99.3034C99.1861 28.4267 98.8448 29.2453 98.2794 29.816C97.7141 30.3813 96.9381 30.6587 95.9514 30.648C94.7301 30.6373 93.8101 30.2293 93.1914 29.424C92.5781 28.6187 92.2741 27.5573 92.2794 26.24C92.2848 25.36 92.4208 24.5893 92.6874 23.928C92.9594 23.2613 93.3674 22.744 93.9114 22.376C94.4554 22.008 95.1354 21.8267 95.9514 21.832C96.7461 21.8373 97.4048 22.0453 97.9274 22.456C98.4501 22.8667 98.8261 23.416 99.0554 24.104L100.751 23.8C100.458 22.6907 99.9061 21.8213 99.0954 21.192C98.2901 20.5627 97.2101 20.248 95.8554 20.248C94.8048 20.248 93.8768 20.4907 93.0714 20.976C92.2661 21.456 91.6368 22.144 91.1834 23.04C90.7301 23.9307 90.5034 24.9973 90.5034 26.24C90.5034 27.4987 90.7354 28.576 91.1994 29.472C91.6634 30.368 92.2981 31.0533 93.1034 31.528C93.9088 32.0027 94.8261 32.24 95.8554 32.24ZM107.282 21.912H108.882V20.312H107.282V21.912ZM104.058 21.912H105.658V20.312H104.058V21.912ZM106.458 32.24C107.317 32.24 108.063 32.048 108.698 31.664C109.333 31.2747 109.823 30.7387 110.17 30.056C110.522 29.368 110.698 28.5733 110.698 27.672C110.698 26.7813 110.525 25.9947 110.178 25.312C109.831 24.624 109.341 24.088 108.706 23.704C108.071 23.3147 107.322 23.12 106.458 23.12C105.61 23.12 104.869 23.312 104.234 23.696C103.599 24.08 103.106 24.6133 102.754 25.296C102.402 25.9787 102.226 26.7707 102.226 27.672C102.226 28.5627 102.399 29.352 102.746 30.04C103.093 30.728 103.581 31.2667 104.21 31.656C104.845 32.0453 105.594 32.24 106.458 32.24ZM106.458 30.664C105.653 30.664 105.042 30.3947 104.626 29.856C104.21 29.312 104.002 28.584 104.002 27.672C104.002 26.792 104.202 26.0773 104.602 25.528C105.002 24.9733 105.621 24.696 106.458 24.696C107.274 24.696 107.887 24.9653 108.298 25.504C108.714 26.0427 108.922 26.7653 108.922 27.672C108.922 28.5573 108.717 29.2773 108.306 29.832C107.901 30.3867 107.285 30.664 106.458 30.664ZM112.456 32H114.144V27.64C114.144 27.1333 114.224 26.664 114.384 26.232C114.544 25.8 114.827 25.4533 115.232 25.192C115.52 25.0053 115.837 24.896 116.184 24.864C116.531 24.832 116.843 24.8533 117.12 24.928V23.36C116.731 23.2853 116.317 23.288 115.88 23.368C115.448 23.448 115.069 23.608 114.744 23.848C114.424 24.0613 114.157 24.3573 113.944 24.736V23.36H112.456V32Z" fill="#F84646"/>
<g clip-path="url(#clip0_527_184)">
<path d="M130.5 26H141.5" stroke="#F84646" stroke-width="2" stroke-linecap="round" stroke-linejoin="round"/>
<path d="M137 21.5L141.5 26L137 30.5" stroke="#F84646" stroke-width="2" stroke-linecap="round" stroke-linejoin="round"/>
</g>
<defs>
<clipPath id="clip0_527_184">
<rect width="16" height="16" fill="white" transform="translate(128 18)"/>
</clipPath>
</defs>
</svg>
